# 3ds Max Wavefront OBJ Exporter v0.97b - (c)2007 guruware
# File Created: 10.10.2017 20:54:03

mtllib Mesh-Arbol2.mtl

#
# object Object004
#

v  18.5553 -120.6626 26.7379
v  9.8743 -51.3909 11.2158
v  -6.5499 -51.3909 14.2049
v  -19.7430 -120.6626 28.8948
v  24.8772 -120.6626 15.9219
v  28.3286 -120.6626 -25.5651
v  11.1535 -51.3909 -6.8833
v  13.9494 -51.3909 7.3598
v  -15.7754 -120.6626 -25.7852
v  -6.5499 -51.3909 -14.0022
v  6.0744 -51.3909 -11.9623
v  25.1888 -120.6626 -28.8948
v  -12.0247 -51.3909 11.2158
v  -15.1761 -51.3909 -6.2454
v  -28.3287 -120.6626 -16.6450
v  -26.4343 -120.6626 24.1602
v  -23.7508 -120.6626 -23.2750
v  -12.0247 -51.3909 -10.6831
v  8.2747 120.6626 -6.2236
v  10.6709 120.6626 5.9823
v  -11.5881 120.6626 9.2868
v  -14.2888 120.6626 -5.6770
v  3.9223 120.6626 -10.5760
v  -6.8964 120.6626 11.8484
v  -11.5881 120.6626 -9.4798
v  7.1785 120.6626 9.2868
v  -6.8964 120.6626 -12.3243
# 27 vertices

vn 0.5118 0.2353 0.8262
vn 0.4556 0.1250 0.8814
vn -0.1512 0.1397 0.9786
vn -0.2867 0.2456 0.9260
vn 0.9307 0.2184 0.2934
vn 0.8833 0.3144 -0.3478
vn 0.8908 0.1426 -0.4314
vn 0.9506 0.1049 0.2921
vn -0.1855 0.2163 -0.9585
vn -0.1787 0.1004 -0.9788
vn 0.4193 0.1440 -0.8963
vn 0.3766 0.3167 -0.8706
vn -0.8146 0.1322 0.5648
vn -0.9728 0.1114 -0.2031
vn -0.9328 0.2327 -0.2753
vn -0.8389 0.2635 0.4762
vn -0.5806 0.2397 -0.7781
vn -0.6728 0.1198 -0.7301
vn 0.8820 0.0166 -0.4710
vn 0.9524 0.0206 0.3041
vn -0.8123 0.0086 0.5832
vn -0.9761 0.0058 -0.2172
vn 0.4540 0.0129 -0.8909
vn -0.1600 0.0132 0.9870
vn -0.6813 0.0068 -0.7320
vn 0.4504 0.0171 0.8927
vn -0.1920 0.0092 -0.9813
vn 0.0000 1.0000 -0.0000
vn 0.0000 -1.0000 -0.0000
# 29 vertex normals

vt 1.0000 0.0000 0.0000
vt 1.0000 0.7500 0.0000
vt 0.2500 0.7500 0.0000
vt 0.2500 0.0000 0.0000
vt 0.9242 0.0000 0.0000
vt 0.8265 0.7500 0.0000
vt 0.7500 0.0000 0.0000
vt 0.7500 0.7500 0.0000
vt 0.1735 0.7500 0.0000
vt 0.0735 0.0000 0.0000
vt 0.1263 0.2461 0.0000
vt 0.1549 0.2461 0.0000
vt 0.1187 0.7500 0.0000
vt 0.8265 1.0000 0.0000
vt 0.2500 1.0000 0.0000
vt 1.0000 1.0000 0.0000
vt 0.0000 0.7500 0.0000
vt 0.0000 0.0000 0.0000
vt 0.1735 1.0000 0.0000
vt 0.1187 1.0000 0.0000
vt 0.0000 1.0000 0.0000
vt 0.7500 1.0000 0.0000
# 22 texture coords

g Object004
usemtl _Mesh_Arbol_tronco_low_poly_para_el_meshwire_115115115
s 1
f 1/1/1 2/2/2 3/3/3 4/4/4 
f 5/4/5 6/5/6 7/6/7 8/3/8 
f 9/7/9 10/8/10 11/9/11 12/10/12 
f 13/2/13 14/3/14 15/4/15 16/1/16 
f 9/7/9 17/1/17 18/2/18 10/8/10 
f 6/11/6 12/12/12 11/9/11 7/13/7 
f 7/6/7 19/14/19 20/15/20 8/3/8 
f 13/2/13 21/16/21 22/15/22 14/3/14 
f 4/4/4 3/3/3 13/17/13 16/18/16 
f 5/4/5 8/3/8 2/17/2 1/18/1 
f 11/9/11 23/19/23 19/20/19 7/13/7 
f 15/4/15 14/3/14 18/17/18 17/18/17 
f 13/17/13 3/3/3 24/15/24 21/21/21 
f 18/17/18 14/3/14 22/15/22 25/21/25 
f 20/15/20 26/21/26 2/17/2 8/3/8 
f 26/16/26 24/15/24 3/3/3 2/2/2 
f 27/22/27 23/19/23 11/9/11 10/8/10 
f 25/16/25 27/22/27 10/8/10 18/2/18 
s off
f 23/19/28 27/22/28 25/16/28 21/16/28 
f 25/16/28 22/15/28 21/16/28 
f 21/16/28 24/15/28 26/16/28 23/19/28 
f 23/19/28 26/16/28 20/15/28 19/14/28 
f 16/18/29 15/4/29 17/18/29 5/4/29 
f 17/18/29 9/7/29 12/10/29 5/4/29 
f 12/10/29 6/11/29 5/4/29 
f 16/18/29 5/4/29 1/18/29 4/4/29 
# 24 polygons - 2 triangles

